<svg width="1501" height="598" viewBox="0 0 1501 598" fill="none" xmlns="http://www.w3.org/2000/svg">
  <g clip-path="url(#clip0_111_4)">
    <g clip-path="url(#clip1_111_4)">
      <g clip-path="url(#clip2_111_4)">
        <g clip-path="url(#clip3_111_4)">
          <g clip-path="url(#clip4_111_4)">
            <g clip-path="url(#clip5_111_4)">
              <g clip-path="url(#clip6_111_4)">
                <path
                  d="M881.865 58.7837L764.535 250.701V352.107H733.946V250.701L616.617 58.7837H649.72L750.288 223.464L850.856 58.7837H881.865ZM1295.03 58.7837H1324.78L1225.89 352.107H1193.21L1107.3 101.944L1020.98 352.107H988.718L889.826 58.7837H921.673L1006.32 311.042L1093.9 58.7837H1122.81L1209.13 312.299L1295.03 58.7837ZM1412.78 354.621C1396.02 354.621 1380.51 350.989 1366.27 343.726C1351.96 336.463 1340.34 326.127 1331.4 312.718L1349.92 291.766C1366.07 315.791 1387.13 327.803 1413.11 327.803C1449.43 327.803 1467.59 306.293 1467.59 263.272V85.6018H1360.4V58.7837H1498.26V262.015C1498.26 292.744 1491.05 315.846 1476.64 331.323C1462.23 346.855 1440.94 354.621 1412.78 354.621Z"
                  fill="#FF4057" />
              </g>
            </g>
            <g clip-path="url(#clip7_111_4)">
              <g clip-path="url(#clip8_111_4)">
                <path
                  d="M648.012 471.323L642.687 478.423C642.608 478.345 642.332 478.147 641.858 477.832C641.385 477.516 640.778 477.201 640.036 476.885C639.279 476.569 638.411 476.278 637.433 476.009C636.438 475.725 635.429 475.583 634.403 475.583C633.062 475.583 631.744 475.899 630.451 476.53C629.141 477.161 628.486 478.345 628.486 480.08C628.486 481.579 629.023 482.802 630.096 483.749C631.153 484.695 632.47 485.54 634.048 486.281C635.626 487.039 637.346 487.812 639.208 488.601C641.054 489.39 642.766 490.352 644.344 491.488C645.921 492.64 647.247 494.068 648.32 495.772C649.377 497.46 649.905 499.606 649.905 502.21C649.905 506.628 648.391 510.272 645.361 513.144C642.316 516.032 638.15 517.475 632.865 517.475C629.788 517.475 626.766 516.939 623.8 515.866C620.849 514.809 618.467 513.254 616.652 511.203C617.204 510.651 617.82 509.941 618.498 509.073C619.161 508.205 619.832 507.377 620.51 506.588C621.173 505.799 621.725 505.144 622.167 504.624C622.593 504.119 622.845 503.866 622.924 503.866C622.924 503.945 623.216 504.182 623.8 504.576C624.399 504.971 625.173 505.381 626.119 505.807C627.066 506.249 628.131 506.643 629.314 506.99C630.498 507.353 631.681 507.535 632.865 507.535C634.758 507.535 636.375 507.061 637.717 506.115C639.058 505.168 639.728 503.906 639.728 502.328C639.728 500.908 639.2 499.78 638.143 498.943C637.07 498.123 635.744 497.358 634.166 496.648C632.589 495.938 630.853 495.204 628.959 494.447C627.066 493.705 625.33 492.742 623.753 491.559C622.175 490.376 620.857 488.892 619.8 487.11C618.727 485.342 618.191 483.039 618.191 480.199C618.191 477.516 618.688 475.268 619.682 473.453C620.66 471.639 621.922 470.155 623.469 469.004C624.999 467.868 626.711 467.039 628.604 466.519C630.498 466.014 632.312 465.761 634.048 465.761C636.336 465.761 638.782 466.235 641.385 467.181C643.988 468.128 646.197 469.509 648.012 471.323ZM659.373 448.01C659.373 446.117 660.059 444.539 661.432 443.277C662.82 442.015 664.303 441.383 665.881 441.383C667.459 441.383 668.919 442.015 670.26 443.277C671.601 444.539 672.271 446.117 672.271 448.01C672.271 449.904 671.601 451.458 670.26 452.673C668.919 453.904 667.459 454.519 665.881 454.519C664.303 454.519 662.82 453.904 661.432 452.673C660.059 451.458 659.373 449.904 659.373 448.01ZM670.733 466.945V516.41H660.674V466.945H670.733ZM681.597 491.677C681.597 487.812 682.251 484.277 683.561 481.074C684.855 477.887 686.646 475.149 688.934 472.862C691.221 470.574 693.927 468.799 697.052 467.536C700.16 466.274 703.529 465.643 707.158 465.643C709.619 465.643 711.812 465.935 713.737 466.519C715.662 467.118 717.319 467.828 718.708 468.649C720.08 469.485 721.24 470.416 722.187 471.441C723.133 472.467 723.844 473.374 724.317 474.163V424.461H734.518V516.41H724.317V512.742C724.317 512.268 724.364 511.732 724.459 511.132C724.522 510.548 724.554 510.059 724.554 509.665C723.765 510.612 722.842 511.535 721.784 512.434C720.711 513.349 719.465 514.201 718.045 514.99C716.625 515.779 714.992 516.41 713.146 516.884C711.284 517.357 709.17 517.594 706.803 517.594C702.858 517.594 699.332 516.899 696.223 515.511C693.115 514.138 690.472 512.284 688.295 509.949C686.117 507.629 684.46 504.892 683.324 501.736C682.172 498.58 681.597 495.228 681.597 491.677ZM691.774 491.559C691.774 493.847 692.192 495.977 693.028 497.949C693.864 499.922 694.985 501.618 696.389 503.038C697.809 504.458 699.505 505.578 701.477 506.399C703.45 507.235 705.619 507.653 707.986 507.653C710.353 507.653 712.546 507.235 714.566 506.399C716.585 505.578 718.321 504.434 719.773 502.967C721.224 501.515 722.345 499.819 723.133 497.878C723.922 495.953 724.317 493.847 724.317 491.559C724.317 489.271 723.922 487.157 723.133 485.216C722.345 483.291 721.224 481.619 719.773 480.199C718.321 478.778 716.585 477.65 714.566 476.814C712.546 475.994 710.353 475.583 707.986 475.583C705.619 475.583 703.45 475.994 701.477 476.814C699.505 477.65 697.809 478.778 696.389 480.199C694.985 481.619 693.864 483.291 693.028 485.216C692.192 487.157 691.774 489.271 691.774 491.559ZM783.013 503.275L790.587 510.612C788.22 512.742 785.34 514.438 781.948 515.7C778.556 516.962 775.084 517.594 771.534 517.594C767.905 517.594 764.497 516.899 761.31 515.511C758.107 514.138 755.322 512.284 752.955 509.949C750.588 507.629 748.718 504.892 747.346 501.736C745.957 498.58 745.263 495.228 745.263 491.677C745.263 488.127 745.957 484.774 747.346 481.619C748.718 478.463 750.588 475.702 752.955 473.335C755.322 470.968 758.067 469.09 761.191 467.702C764.3 466.329 767.629 465.643 771.179 465.643C776.78 465.643 781.656 467.315 785.806 470.66C789.94 474.021 792.914 478.423 794.728 483.867C792.283 484.735 789.482 485.8 786.326 487.062C783.171 488.324 779.897 489.642 776.504 491.015C773.112 492.403 769.72 493.768 766.327 495.109C762.935 496.45 759.779 497.673 756.86 498.778C758.201 501.46 760.158 503.606 762.73 505.215C765.286 506.841 768.142 507.653 771.297 507.653C773.427 507.653 775.581 507.259 777.759 506.47C779.92 505.681 781.672 504.616 783.013 503.275ZM782.066 481.5C781.12 479.528 779.621 478.045 777.569 477.051C775.518 476.072 773.427 475.583 771.297 475.583C769.01 475.583 766.903 476.017 764.978 476.885C763.037 477.753 761.357 478.913 759.937 480.364C758.517 481.832 757.397 483.512 756.576 485.405C755.74 487.299 755.322 489.232 755.322 491.204C755.322 491.598 755.345 491.875 755.393 492.032C755.424 492.19 755.44 492.309 755.44 492.387C757.491 491.598 759.724 490.707 762.138 489.713C764.536 488.735 766.919 487.749 769.286 486.754C771.652 485.776 773.94 484.83 776.149 483.914C778.358 483.015 780.331 482.21 782.066 481.5ZM860.762 491.559C860.762 489.271 860.407 487.157 859.696 485.216C858.986 483.291 857.961 481.619 856.62 480.199C855.279 478.778 853.661 477.65 851.768 476.814C849.874 475.994 847.744 475.583 845.377 475.583C843.011 475.583 840.818 475.994 838.798 476.814C836.794 477.65 835.082 478.778 833.662 480.199C832.242 481.619 831.114 483.291 830.277 485.216C829.457 487.157 829.047 489.271 829.047 491.559C829.047 493.847 829.457 495.977 830.277 497.949C831.114 499.922 832.242 501.618 833.662 503.038C835.082 504.458 836.794 505.578 838.798 506.399C840.818 507.235 843.011 507.653 845.377 507.653C847.744 507.653 849.874 507.235 851.768 506.399C853.661 505.578 855.279 504.434 856.62 502.967C857.961 501.515 858.986 499.819 859.696 497.878C860.407 495.953 860.762 493.847 860.762 491.559ZM871.767 491.796C871.767 495.504 871.136 498.936 869.874 502.091C868.611 505.247 866.836 507.969 864.548 510.257C862.26 512.544 859.515 514.335 856.312 515.629C853.125 516.939 849.638 517.594 845.851 517.594C843.879 517.594 842.001 517.381 840.218 516.955C838.451 516.513 836.818 515.913 835.319 515.156C833.82 514.414 832.518 513.586 831.414 512.671C830.309 511.771 829.481 510.848 828.928 509.902C828.928 510.296 828.944 510.706 828.976 511.132C829.023 511.574 829.047 511.992 829.047 512.387V540.196H818.87V466.945H828.692C828.692 467.891 828.747 469.051 828.857 470.424C828.984 471.812 829.047 473.059 829.047 474.163C829.678 473.217 830.522 472.254 831.579 471.276C832.652 470.282 833.914 469.367 835.366 468.53C836.833 467.71 838.474 467.023 840.289 466.471C842.103 465.919 844.115 465.643 846.324 465.643C850.111 465.643 853.559 466.25 856.667 467.465C859.791 468.696 862.474 470.432 864.714 472.672C866.97 474.928 868.706 477.674 869.921 480.909C871.152 484.143 871.767 487.772 871.767 491.796ZM912.239 465.643L909.99 478.66C907.781 478.66 905.651 478.952 903.6 479.536C901.549 480.135 899.711 481.027 898.086 482.21C896.476 483.394 895.198 484.869 894.251 486.636C893.305 488.419 892.831 490.455 892.831 492.742V516.41H882.773V466.945H891.648C891.806 469.39 891.94 471.623 892.05 473.643C892.177 475.646 892.319 477.635 892.476 479.607C893.502 477.477 894.843 475.544 896.5 473.808C898.157 472.073 899.932 470.613 901.825 469.43C903.719 468.246 905.573 467.315 907.387 466.637C909.202 465.974 910.819 465.643 912.239 465.643ZM915.174 491.559C915.174 488.009 915.868 484.656 917.257 481.5C918.629 478.345 920.499 475.599 922.866 473.264C925.233 470.944 928.017 469.09 931.22 467.702C934.408 466.329 937.855 465.643 941.563 465.643C945.271 465.643 948.727 466.329 951.93 467.702C955.117 469.09 957.878 470.944 960.214 473.264C962.533 475.599 964.347 478.345 965.657 481.5C966.951 484.656 967.598 488.009 967.598 491.559C967.598 495.109 966.951 498.462 965.657 501.618C964.347 504.774 962.533 507.535 960.214 509.902C957.878 512.268 955.117 514.138 951.93 515.511C948.727 516.899 945.232 517.594 941.445 517.594C937.816 517.594 934.408 516.962 931.22 515.7C928.017 514.438 925.233 512.663 922.866 510.375C920.499 508.087 918.629 505.342 917.257 502.139C915.868 498.951 915.174 495.425 915.174 491.559ZM925.233 491.677C925.233 493.886 925.651 495.953 926.487 497.878C927.307 499.819 928.451 501.515 929.919 502.967C931.37 504.434 933.067 505.578 935.007 506.399C936.932 507.235 938.999 507.653 941.208 507.653C943.417 507.653 945.508 507.235 947.48 506.399C949.453 505.578 951.172 504.434 952.64 502.967C954.091 501.515 955.251 499.819 956.119 497.878C956.987 495.953 957.421 493.886 957.421 491.677C957.421 489.468 956.987 487.378 956.119 485.405C955.251 483.433 954.091 481.713 952.64 480.246C951.172 478.794 949.453 477.65 947.48 476.814C945.508 475.994 943.417 475.583 941.208 475.583C938.999 475.583 936.932 475.994 935.007 476.814C933.067 477.65 931.37 478.794 929.919 480.246C928.451 481.713 927.307 483.433 926.487 485.405C925.651 487.378 925.233 489.468 925.233 491.677ZM978.248 540.315L971.148 532.741C973.436 530.926 975.211 528.662 976.473 525.948C977.736 523.219 978.367 519.96 978.367 516.174V466.945H988.425V516.529C988.425 521.893 987.518 526.548 985.704 530.493C983.889 534.437 981.404 537.711 978.248 540.315ZM977.302 448.01C977.302 446.117 977.972 444.539 979.313 443.277C980.655 442.015 982.154 441.383 983.81 441.383C985.388 441.383 986.848 442.015 988.189 443.277C989.53 444.539 990.201 446.117 990.201 448.01C990.201 449.904 989.53 451.458 988.189 452.673C986.848 453.904 985.388 454.519 983.81 454.519C982.154 454.519 980.655 453.904 979.313 452.673C977.972 451.458 977.302 449.904 977.302 448.01ZM1036.94 503.275L1044.52 510.612C1042.15 512.742 1039.27 514.438 1035.88 515.7C1032.49 516.962 1029.02 517.594 1025.47 517.594C1021.84 517.594 1018.42 516.899 1015.22 515.511C1012.03 514.138 1009.25 512.284 1006.89 509.949C1004.52 507.629 1002.64 504.892 1001.25 501.736C999.881 498.58 999.194 495.228 999.194 491.677C999.194 488.127 999.881 484.774 1001.25 481.619C1002.64 478.463 1004.52 475.702 1006.89 473.335C1009.25 470.968 1011.99 469.09 1015.1 467.702C1018.22 466.329 1021.56 465.643 1025.11 465.643C1030.71 465.643 1035.58 467.315 1039.71 470.66C1043.86 474.021 1046.85 478.423 1048.66 483.867C1046.21 484.735 1043.41 485.8 1040.26 487.062C1037.1 488.324 1033.83 489.642 1030.44 491.015C1027.04 492.403 1023.65 493.768 1020.26 495.109C1016.87 496.45 1013.71 497.673 1010.79 498.778C1012.13 501.46 1014.08 503.606 1016.64 505.215C1019.21 506.841 1022.07 507.653 1025.23 507.653C1027.36 507.653 1029.5 507.259 1031.67 506.47C1033.84 505.681 1035.6 504.616 1036.94 503.275ZM1036 481.5C1035.05 479.528 1033.55 478.045 1031.5 477.051C1029.45 476.072 1027.36 475.583 1025.23 475.583C1022.94 475.583 1020.83 476.017 1018.89 476.885C1016.96 477.753 1015.29 478.913 1013.87 480.364C1012.45 481.832 1011.32 483.512 1010.48 485.405C1009.66 487.299 1009.25 489.232 1009.25 491.204C1009.25 491.598 1009.27 491.875 1009.3 492.032C1009.35 492.19 1009.37 492.309 1009.37 492.387C1011.42 491.598 1013.65 490.707 1016.05 489.713C1018.46 488.735 1020.85 487.749 1023.22 486.754C1025.58 485.776 1027.87 484.83 1030.08 483.914C1032.29 483.015 1034.26 482.21 1036 481.5ZM1090.55 504.221C1091.66 505.562 1092.7 506.841 1093.68 508.055C1094.67 509.286 1095.68 510.572 1096.71 511.913C1094.5 513.649 1092.01 515.03 1089.25 516.055C1086.49 517.081 1083.49 517.594 1080.26 517.594C1076.63 517.594 1073.21 516.899 1070.01 515.511C1066.82 514.138 1064.04 512.268 1061.68 509.902C1059.31 507.535 1057.43 504.774 1056.04 501.618C1054.67 498.462 1053.99 495.109 1053.99 491.559C1053.99 488.009 1054.67 484.656 1056.04 481.5C1057.43 478.345 1059.31 475.599 1061.68 473.264C1064.04 470.944 1066.82 469.09 1070.01 467.702C1073.21 466.329 1076.63 465.643 1080.26 465.643C1083.57 465.643 1086.62 466.156 1089.42 467.181C1092.22 468.207 1094.77 469.587 1097.06 471.323L1090.55 479.015C1089.21 477.911 1087.67 477.059 1085.94 476.459C1084.2 475.875 1082.31 475.583 1080.26 475.583C1077.89 475.583 1075.72 475.994 1073.75 476.814C1071.78 477.65 1070.06 478.778 1068.59 480.199C1067.14 481.619 1066.02 483.291 1065.23 485.216C1064.44 487.157 1064.04 489.271 1064.04 491.559C1064.04 493.847 1064.44 495.953 1065.23 497.878C1066.02 499.819 1067.14 501.515 1068.59 502.967C1070.06 504.434 1071.78 505.578 1073.75 506.399C1075.72 507.235 1077.89 507.653 1080.26 507.653C1082.31 507.653 1084.2 507.353 1085.94 506.754C1087.67 506.17 1089.21 505.326 1090.55 504.221ZM1110.88 467.063V445.17H1120.94V467.063H1134.2V476.057H1120.94V516.41H1110.88V476.057H1102.01V467.063H1110.88Z"
                  fill="#DCDCDC" />
              </g>
            </g>
          </g>
        </g>
        <g clip-path="url(#clip9_111_4)">
          <g clip-path="url(#clip10_111_4)">
            <path
              d="M266.363 343.344H74.7379C71.9668 343.344 69.3092 344.445 67.3497 346.404C65.3903 348.364 64.2894 351.021 64.2894 353.792C64.2894 356.563 65.3903 359.221 67.3497 361.18C69.3092 363.14 71.9668 364.241 74.7379 364.241H108.748V507.385C108.748 510.156 109.849 512.814 111.808 514.773C113.768 516.733 116.425 517.834 119.196 517.834C121.967 517.834 124.625 516.733 126.585 514.773C128.544 512.814 129.645 510.156 129.645 507.385V364.241H211.509V507.385C211.509 510.156 212.61 512.814 214.569 514.773C216.529 516.733 219.186 517.834 221.957 517.834C224.728 517.834 227.386 516.733 229.346 514.773C231.305 512.814 232.406 510.156 232.406 507.385V364.241H266.416C269.187 364.241 271.844 363.14 273.804 361.18C275.763 359.221 276.864 356.563 276.864 353.792C276.864 351.021 275.763 348.364 273.804 346.404C271.844 344.445 269.187 343.344 266.416 343.344H266.363Z"
              fill="#DCDCDC" />
            <path
              d="M485.207 173.242H433.278C420.808 173.242 408.849 178.196 400.031 187.014C391.214 195.831 386.26 207.791 386.26 220.261V260.592L375.812 270.1L329.472 220.208C323.749 214.224 315.916 210.711 307.64 210.419C299.365 210.126 291.303 213.076 285.171 218.641C282.675 220.967 280.575 223.684 278.954 226.686L267.774 225.955L239.824 84.1688C239.347 81.7636 238.038 79.6031 236.128 78.0654C234.218 76.5277 231.828 75.7108 229.376 75.7578H12.5694C11.0077 75.7277 9.45911 76.0482 8.0376 76.6957C6.6161 77.3431 5.35785 78.301 4.35542 79.4989C3.35299 80.6968 2.6319 82.1042 2.24519 83.6176C1.85848 85.131 1.816 86.7118 2.12088 88.2437L46.8405 314.767C47.3182 317.173 48.6267 319.333 50.5369 320.871C52.447 322.408 54.8372 323.225 57.289 323.178H274.461C276.023 323.208 277.571 322.888 278.993 322.24C280.414 321.593 281.673 320.635 282.675 319.437C283.677 318.239 284.399 316.832 284.785 315.319C285.172 313.805 285.214 312.224 284.91 310.692L272.006 247.322H275.767C276.836 253.185 279.555 258.622 283.604 262.995L351.049 336.134C355.433 340.805 361.144 344.02 367.411 345.346C373.679 346.673 380.202 346.047 386.103 343.553V360.271L380.043 366.853C376.485 370.83 373.989 375.641 372.789 380.84C371.588 386.04 371.721 391.458 373.175 396.592C374.629 401.726 377.358 406.41 381.107 410.207C384.856 414.004 389.504 416.792 394.619 418.312C401.247 427.973 411.1 434.956 422.412 438.007V536.328H420.897C413.062 536.41 405.573 539.566 400.042 545.116C394.511 550.666 391.382 558.166 391.328 566.002V569.032C391.341 576.939 394.489 584.518 400.08 590.11C405.671 595.701 413.251 598.848 421.158 598.862H469.691C476.619 598.862 483.263 596.11 488.162 591.211C493.061 586.313 495.813 579.669 495.813 572.741V438.007C506.282 435.215 515.539 429.049 522.15 420.464C528.761 411.879 532.358 401.354 532.382 390.519V220.417C532.403 214.216 531.197 208.073 528.834 202.34C526.47 196.607 522.996 191.398 518.611 187.013C514.227 182.629 509.018 179.155 503.285 176.791C497.552 174.428 491.408 173.222 485.207 173.242ZM44.9597 196.438L25.2643 96.6548H221.017L242.436 205.528L218.927 193.878C217.483 193.16 215.891 192.787 214.278 192.787C212.664 192.787 211.073 193.16 209.628 193.878L177.395 209.864L102.427 172.563C100.982 171.845 99.3903 171.472 97.7769 171.472C96.1636 171.472 94.5721 171.845 93.1273 172.563L44.9597 196.438ZM65.8567 302.281L49.1392 217.701L97.7769 193.565L172.745 230.761C174.19 231.479 175.781 231.853 177.395 231.853C179.008 231.853 180.599 231.479 182.044 230.761L214.278 214.775L232.197 223.656L226.973 223.291C224.202 222.979 221.42 223.781 219.24 225.52C217.06 227.259 215.66 229.793 215.349 232.564C215.037 235.335 215.839 238.116 217.578 240.296C219.317 242.476 221.851 243.876 224.622 244.188H225.562L250.43 245.859L261.557 302.281H65.8567ZM386.103 317.954L380.879 322.604C379.87 323.546 378.685 324.28 377.391 324.761C376.097 325.243 374.72 325.464 373.341 325.41C371.961 325.357 370.606 325.031 369.353 324.45C368.1 323.87 366.975 323.047 366.042 322.029L299.224 249.151L304.083 249.464C306.847 249.651 309.572 248.732 311.658 246.909C313.745 245.087 315.023 242.511 315.21 239.747C315.303 237.94 314.925 236.14 314.113 234.523L367.557 291.99C368.493 292.996 369.618 293.808 370.868 294.379C372.118 294.95 373.468 295.269 374.841 295.318C376.215 295.366 377.584 295.144 378.871 294.662C380.158 294.181 381.338 293.45 382.342 292.512L385.999 289.116L386.103 317.954ZM395.977 396.004C394.967 395.072 394.151 393.95 393.575 392.702C392.999 391.454 392.676 390.105 392.622 388.731C392.569 387.358 392.787 385.988 393.264 384.699C393.741 383.41 394.468 382.227 395.403 381.22L443.413 329.343C445.198 327.408 446.187 324.871 446.182 322.238V256.83C446.182 254.059 447.283 251.402 449.243 249.442C451.202 247.483 453.86 246.382 456.631 246.382C459.402 246.382 462.059 247.483 464.019 249.442C465.978 251.402 467.079 254.059 467.079 256.83V329.97C467.077 331.453 466.76 332.92 466.147 334.271C465.535 335.622 464.641 336.827 463.527 337.806C463.051 338.219 462.614 338.673 462.221 339.165C459.609 342.195 430.092 374.272 410.71 395.325C408.822 397.342 406.212 398.53 403.451 398.628C400.69 398.725 398.003 397.726 395.977 395.848V396.004ZM474.916 573.054C474.916 574.44 474.365 575.769 473.385 576.748C472.406 577.728 471.077 578.279 469.691 578.279H421.158C418.789 578.279 416.517 577.337 414.841 575.662C413.166 573.987 412.225 571.714 412.225 569.345V566.002C412.225 563.632 413.166 561.36 414.841 559.685C416.517 558.009 418.789 557.068 421.158 557.068H433.122C435.893 557.068 438.55 555.967 440.51 554.008C442.469 552.048 443.57 549.391 443.57 546.62V442.135H474.916V573.054ZM511.485 390.623C511.445 398.061 508.479 405.184 503.23 410.453C497.98 415.722 490.868 418.714 483.431 418.782H435.316C429.978 418.823 424.739 417.336 420.218 414.498C422.342 413.002 424.273 411.247 425.964 409.274C464.154 367.846 474.55 356.457 477.632 352.904C480.892 349.989 483.505 346.424 485.305 342.438C487.104 338.452 488.05 334.134 488.081 329.761V256.621C488.081 248.308 484.778 240.335 478.9 234.457C473.021 228.578 465.049 225.276 456.735 225.276C448.422 225.276 440.449 228.578 434.571 234.457C428.692 240.335 425.39 248.308 425.39 256.621V318.006L407.105 337.754V220.417C407.105 213.49 409.857 206.845 414.756 201.947C419.654 197.048 426.298 194.296 433.226 194.296H485.155C492.083 194.296 498.727 197.048 503.626 201.947C508.524 206.845 511.276 213.49 511.276 220.417L511.485 390.623Z"
              fill="#DCDCDC" />
            <path
              d="M495.917 7.8948C480.779 1.5426 464.291 -0.917964 447.958 0.737575C431.189 2.93176 419.486 10.7159 414.732 22.6794C411.704 30.7655 411.986 39.7193 415.516 47.5991C408.135 54.7712 402.633 63.65 399.496 73.4519C396.36 83.2537 395.684 93.6771 397.53 103.802C399.375 113.927 403.685 123.441 410.079 131.506C416.472 139.57 424.753 145.937 434.189 150.044C443.626 154.15 453.929 155.87 464.188 155.052C474.447 154.234 484.347 150.903 493.013 145.353C501.68 139.803 508.847 132.204 513.882 123.229C518.916 114.253 521.664 104.175 521.882 93.886C526.897 92.5568 531.55 90.1214 535.501 86.7584C539.452 83.3954 542.599 79.1903 544.712 74.4518C553.75 51.6218 532.33 22.4182 495.917 7.8948ZM459.347 134.113C451.402 134.093 443.627 131.808 436.934 127.527C430.24 123.246 424.906 117.145 421.556 109.941C418.206 102.736 416.979 94.726 418.019 86.8489C419.058 78.9719 422.322 71.5545 427.427 65.4661C437.657 75.874 450.004 83.9626 463.631 89.1841C475.468 94.0196 488.096 96.6233 500.88 96.8638C499.747 107.106 494.869 116.569 487.184 123.435C479.499 130.3 469.548 134.084 459.243 134.06L459.347 134.113ZM525.225 66.6676C521.255 76.6982 497.275 80.1462 471.206 69.7499C459.149 65.2575 448.384 57.8652 439.861 48.226C434.323 41.3823 432.181 34.8519 433.957 30.3591C435.734 25.8662 441.794 22.5749 450.518 21.4256C452.823 21.135 455.144 20.9954 457.467 21.0077C467.937 21.1931 478.281 23.3187 487.976 27.2768C514.254 37.673 529.248 56.6371 525.225 66.6676Z"
              fill="#DCDCDC" />
          </g>
        </g>
      </g>
    </g>
  </g>
  <defs>
    <clipPath id="clip0_111_4">
      <rect width="1500" height="597.75" fill="white" transform="translate(0.0909424 0.220215)" />
    </clipPath>
    <clipPath id="clip1_111_4">
      <rect width="1496.34" height="598.626" fill="white" transform="translate(1.9198 0.236328)" />
    </clipPath>
    <clipPath id="clip2_111_4">
      <rect width="1496.34" height="598.626" fill="white" transform="translate(1.9198 0.236328)" />
    </clipPath>
    <clipPath id="clip3_111_4">
      <rect width="881.645" height="481.531" fill="white" transform="translate(616.617 58.7837)" />
    </clipPath>
    <clipPath id="clip4_111_4">
      <rect width="881.645" height="481.531" fill="white" transform="translate(616.617 58.7837)" />
    </clipPath>
    <clipPath id="clip5_111_4">
      <rect width="881.645" height="295.837" fill="white" transform="translate(616.617 58.7837)" />
    </clipPath>
    <clipPath id="clip6_111_4">
      <rect width="881.645" height="295.837" fill="white" transform="translate(616.617 58.7837)" />
    </clipPath>
    <clipPath id="clip7_111_4">
      <rect width="517.614" height="115.854" fill="white" transform="translate(616.617 424.461)" />
    </clipPath>
    <clipPath id="clip8_111_4">
      <rect width="517.614" height="115.854" fill="white" transform="translate(616.617 424.461)" />
    </clipPath>
    <clipPath id="clip9_111_4">
      <rect width="544.857" height="598.626" fill="white" transform="translate(1.9198 0.236328)" />
    </clipPath>
    <clipPath id="clip10_111_4">
      <rect width="544.857" height="598.626" fill="white" transform="translate(1.9198 0.236328)" />
    </clipPath>
  </defs>
</svg>